[2024-12-22 22:05:02] 任务已加入队列，即将开始处理...
[2024-12-22 22:05:02] 开始处理任务...
[2024-12-22 22:05:08] tango args: C:\computer\3\itproject\digitaltool\static\action_uploads\20241222220502-10b51a\20241222220502-10b51a.wav C:\computer\3\itproject\digitaltool\static\action_uploads\20241222220502-10b51a\20241222220502-10b51a.mp4 C:\computer\3\itproject\digitaltool\static\action_uploads\20241222220502-10b51a\20241222220502-10b51a_output.mp4
[2024-12-22 22:05:08] 视频开始生成
[2024-12-22 22:05:08] C:\computer\3\itproject\manyaitools_modules\TANGO\datasets/data_json/youtube_test/speaker1.json
[2024-12-22 22:05:10] ffmpeg version 2024-06-24-git-6ec22731ae-full_build-www.gyan.dev Copyright (c) 2000-2024 the FFmpeg developers
[2024-12-22 22:05:10] built with gcc 13.2.0 (Rev5, Built by MSYS2 project)
[2024-12-22 22:05:10] configuration: --enable-gpl --enable-version3 --enable-static --disable-w32threads --disable-autodetect --enable-fontconfig --enable-iconv --enable-gnutls --enable-libxml2 --enable-gmp --enable-bzlib --enable-lzma --enable-libsnappy --enable-zlib --enable-librist --enable-libsrt --enable-libssh --enable-libzmq --enable-avisynth --enable-libbluray --enable-libcaca --enable-sdl2 --enable-libaribb24 --enable-libaribcaption --enable-libdav1d --enable-libdavs2 --enable-libopenjpeg --enable-libquirc --enable-libuavs3d --enable-libxevd --enable-libzvbi --enable-libqrencode --enable-librav1e --enable-libsvtav1 --enable-libwebp --enable-libx264 --enable-libx265 --enable-libxavs2 --enable-libxeve --enable-libxvid --enable-libaom --enable-libjxl --enable-libvpx --enable-mediafoundation --enable-libass --enable-frei0r --enable-libfreetype --enable-libfribidi --enable-libharfbuzz --enable-liblensfun --enable-libvidstab --enable-libvmaf --enable-libzimg --enable-amf --enable-cuda-llvm --enable-cuvid --enable-dxva2 --enable-d3d11va --enable-d3d12va --enable-ffnvcodec --enable-libvpl --enable-nvdec --enable-nvenc --enable-vaapi --enable-libshaderc --enable-vulkan --enable-libplacebo --enable-opencl --enable-libcdio --enable-libgme --enable-libmodplug --enable-libopenmpt --enable-libopencore-amrwb --enable-libmp3lame --enable-libshine --enable-libtheora --enable-libtwolame --enable-libvo-amrwbenc --enable-libcodec2 --enable-libilbc --enable-libgsm --enable-libopencore-amrnb --enable-libopus --enable-libspeex --enable-libvorbis --enable-ladspa --enable-libbs2b --enable-libflite --enable-libmysofa --enable-librubberband --enable-libsoxr --enable-chromaprint
[2024-12-22 22:05:10] libavutil      59. 25.100 / 59. 25.100
[2024-12-22 22:05:10] libavcodec     61.  8.100 / 61.  8.100
[2024-12-22 22:05:10] libavformat    61.  4.100 / 61.  4.100
[2024-12-22 22:05:10] libavdevice    61.  2.100 / 61.  2.100
[2024-12-22 22:05:10] libavfilter    10.  2.102 / 10.  2.102
[2024-12-22 22:05:10] libswscale      8.  2.100 /  8.  2.100
[2024-12-22 22:05:10] libswresample   5.  2.100 /  5.  2.100
[2024-12-22 22:05:10] libpostproc    58.  2.100 / 58.  2.100
[2024-12-22 22:05:10] Input #0, mov,mp4,m4a,3gp,3g2,mj2, from 'C:\computer\3\itproject\manyaitools_modules\TANGO\outputs/tmpvideo\save_video_fps.mp4':
[2024-12-22 22:05:10] Metadata:
[2024-12-22 22:05:10] major_brand     : isom
[2024-12-22 22:05:10] minor_version   : 512
[2024-12-22 22:05:10] compatible_brands: isomiso2mp41
[2024-12-22 22:05:10] encoder         : Lavf58.76.100
[2024-12-22 22:05:10] Duration: 00:00:10.00, start: 0.000000, bitrate: 4877 kb/s
[2024-12-22 22:05:10] Stream #0:0[0x1](und): Video: mpeg4 (Simple Profile) (mp4v / 0x7634706D), yuv420p, 720x1280 [SAR 1:1 DAR 9:16], 4875 kb/s, 30 fps, 30 tbr, 15360 tbn (default)
[2024-12-22 22:05:10] Metadata:
[2024-12-22 22:05:10] handler_name    : VideoHandler
[2024-12-22 22:05:10] vendor_id       : [0][0][0][0]
[2024-12-22 22:05:10] Stream mapping:
[2024-12-22 22:05:10] Stream #0:0 -> #0:0 (mpeg4 (native) -> h264 (libx264))
[2024-12-22 22:05:10] Press [q] to stop, [?] for help
[2024-12-22 22:05:11] [libx264 @ 000001f0c03bd2c0] using SAR=1/1
[2024-12-22 22:05:11] [libx264 @ 000001f0c03bd2c0] using cpu capabilities: MMX2 SSE2Fast SSSE3 SSE4.2 AVX FMA3 BMI2 AVX2
[2024-12-22 22:05:11] [libx264 @ 000001f0c03bd2c0] profile High, level 3.1, 4:2:0, 8-bit
[2024-12-22 22:05:11] [libx264 @ 000001f0c03bd2c0] 264 - core 164 r3191 4613ac3 - H.264/MPEG-4 AVC codec - Copyleft 2003-2024 - http://www.videolan.org/x264.html - options: cabac=1 ref=3 deblock=1:0:0 analyse=0x3:0x113 me=hex subme=7 psy=1 psy_rd=1.00:0.00 mixed_ref=1 me_range=16 chroma_me=1 trellis=1 8x8dct=1 cqm=0 deadzone=21,11 fast_pskip=1 chroma_qp_offset=-2 threads=24 lookahead_threads=4 sliced_threads=0 nr=0 decimate=1 interlaced=0 bluray_compat=0 constrained_intra=0 bframes=3 b_pyramid=2 b_adapt=1 b_bias=0 direct=1 weightb=1 open_gop=0 weightp=2 keyint=250 keyint_min=25 scenecut=40 intra_refresh=0 rc_lookahead=40 rc=crf mbtree=1 crf=23.0 qcomp=0.60 qpmin=0 qpmax=69 qpstep=4 ip_ratio=1.40 aq=1:1.00
[2024-12-22 22:05:11] Output #0, mp4, to 'C:\computer\3\itproject\manyaitools_modules\TANGO\outputs/tmpvideo\save_video.mp4':
[2024-12-22 22:05:11] Metadata:
[2024-12-22 22:05:11] major_brand     : isom
[2024-12-22 22:05:11] minor_version   : 512
[2024-12-22 22:05:11] compatible_brands: isomiso2mp41
[2024-12-22 22:05:11] encoder         : Lavf61.4.100
[2024-12-22 22:05:11] Stream #0:0(und): Video: h264 (avc1 / 0x31637661), yuv420p(progressive), 720x1280 [SAR 1:1 DAR 9:16], q=2-31, 30 fps, 15360 tbn (default)
[2024-12-22 22:05:11] Metadata:
[2024-12-22 22:05:11] handler_name    : VideoHandler
[2024-12-22 22:05:11] vendor_id       : [0][0][0][0]
[2024-12-22 22:05:11] encoder         : Lavc61.8.100 libx264
[2024-12-22 22:05:11] Side data:
[2024-12-22 22:05:11] cpb: bitrate max/min/avg: 0/0/0 buffer size: 0 vbv_delay: N/A
[2024-12-22 22:05:11] frame=    0 fps=0.0 q=0.0 size=       0KiB time=N/A bitrate=N/A speed=N/A
[2024-12-22 22:05:12] frame=    0 fps=0.0 q=0.0 size=       0KiB time=N/A bitrate=N/A speed=N/A
[2024-12-22 22:05:12] frame=    0 fps=0.0 q=0.0 size=       0KiB time=N/A bitrate=N/A speed=N/A
[2024-12-22 22:05:13] frame=    0 fps=0.0 q=0.0 size=       0KiB time=N/A bitrate=N/A speed=N/A
[2024-12-22 22:05:13] frame=    0 fps=0.0 q=0.0 size=       0KiB time=N/A bitrate=N/A speed=N/A
[2024-12-22 22:05:14] frame=    0 fps=0.0 q=0.0 size=       0KiB time=N/A bitrate=N/A speed=N/A
[2024-12-22 22:05:15] frame=    0 fps=0.0 q=0.0 size=       0KiB time=N/A bitrate=N/A speed=N/A
[2024-12-22 22:05:15] frame=    0 fps=0.0 q=0.0 size=       0KiB time=N/A bitrate=N/A speed=N/A
[2024-12-22 22:05:16] frame=    0 fps=0.0 q=0.0 size=       0KiB time=N/A bitrate=N/A speed=N/A
[2024-12-22 22:05:16] frame=    0 fps=0.0 q=0.0 size=       0KiB time=N/A bitrate=N/A speed=N/A
[2024-12-22 22:05:17] frame=    0 fps=0.0 q=0.0 size=       0KiB time=N/A bitrate=N/A speed=N/A
[2024-12-22 22:05:17] frame=    6 fps=1.0 q=29.0 size=       0KiB time=00:00:00.13 bitrate=   2.9kbits/s speed=0.0216x
[2024-12-22 22:05:18] frame=   13 fps=1.9 q=29.0 size=       0KiB time=00:00:00.36 bitrate=   1.0kbits/s speed=0.0547x
[2024-12-22 22:05:18] frame=   20 fps=2.8 q=29.0 size=       0KiB time=00:00:00.60 bitrate=   0.6kbits/s speed=0.0832x
[2024-12-22 22:05:19] frame=   27 fps=3.5 q=29.0 size=     256KiB time=00:00:00.83 bitrate=2517.0kbits/s speed=0.108x
[2024-12-22 22:05:19] frame=   34 fps=4.1 q=29.0 size=     256KiB time=00:00:01.06 bitrate=1966.4kbits/s speed=0.129x
[2024-12-22 22:05:20] frame=   41 fps=4.7 q=29.0 size=     256KiB time=00:00:01.30 bitrate=1613.5kbits/s speed=0.148x
[2024-12-22 22:05:20] frame=   47 fps=5.1 q=29.0 size=     256KiB time=00:00:01.50 bitrate=1398.4kbits/s speed=0.162x
[2024-12-22 22:05:21] frame=   54 fps=5.5 q=29.0 size=     512KiB time=00:00:01.73 bitrate=2420.0kbits/s speed=0.177x
[2024-12-22 22:05:21] frame=   62 fps=6.0 q=29.0 size=     512KiB time=00:00:02.00 bitrate=2097.3kbits/s speed=0.194x
[2024-12-22 22:05:22] frame=   69 fps=6.4 q=29.0 size=     512KiB time=00:00:02.23 bitrate=1878.2kbits/s speed=0.206x
[2024-12-22 22:05:22] frame=   76 fps=6.7 q=29.0 size=     768KiB time=00:00:02.46 bitrate=2550.7kbits/s speed=0.218x
[2024-12-22 22:05:23] frame=   84 fps=7.1 q=29.0 size=     768KiB time=00:00:02.73 bitrate=2301.9kbits/s speed=0.23x
[2024-12-22 22:05:23] frame=   92 fps=7.4 q=29.0 size=     768KiB time=00:00:03.00 bitrate=2097.3kbits/s speed=0.243x
[2024-12-22 22:05:24] frame=   98 fps=7.6 q=29.0 size=    1024KiB time=00:00:03.20 bitrate=2621.6kbits/s speed=0.248x
[2024-12-22 22:05:24] frame=  104 fps=7.8 q=29.0 size=    1024KiB time=00:00:03.40 bitrate=2467.4kbits/s speed=0.254x
[2024-12-22 22:05:25] frame=  111 fps=8.0 q=29.0 size=    1024KiB time=00:00:03.63 bitrate=2308.9kbits/s speed=0.261x
[2024-12-22 22:05:25] frame=  119 fps=8.2 q=29.0 size=    1280KiB time=00:00:03.90 bitrate=2688.8kbits/s speed=0.27x
[2024-12-22 22:05:26] frame=  127 fps=8.5 q=29.0 size=    1280KiB time=00:00:04.16 bitrate=2516.7kbits/s speed=0.279x
[2024-12-22 22:05:26] frame=  135 fps=8.7 q=29.0 size=    1280KiB time=00:00:04.43 bitrate=2365.3kbits/s speed=0.287x
[2024-12-22 22:05:27] frame=  143 fps=8.9 q=29.0 size=    1536KiB time=00:00:04.70 bitrate=2677.3kbits/s speed=0.294x
[2024-12-22 22:05:27] frame=  147 fps=8.9 q=29.0 size=    1536KiB time=00:00:04.86 bitrate=2585.6kbits/s speed=0.295x
